<?xml version="1.0" encoding="utf-8" ?>
<svg xmlns="http://www.w3.org/2000/svg" xmlns:xlink="http://www.w3.org/1999/xlink" width="1024" height="1024">
	<g>
		<path fill="#190A50" d="M374.009 267.088C409.363 238.737 450.203 225.74 495.017 222.736C506.183 221.988 517.083 221.374 528.245 222.612C531.301 222.951 534.454 223.6 537.523 223.643C540.274 223.683 543.056 223.019 545.794 223.473C550.638 224.277 555.373 226.5 560.179 227.643C570.565 230.115 580.588 232.416 590.661 236.039C620.932 246.926 651.073 267.077 671.231 292.364C695.814 323.201 705.475 359.747 701.034 398.748Q700.695 401.706 700.242 404.649C706.661 409.742 711.983 414.906 717.577 420.857C718.87 422.233 720.534 423.548 721.613 425.091C724.887 429.773 727.918 442.533 728.633 448.474Q728.772 449.56 728.857 450.652Q728.941 451.744 728.97 452.839Q728.999 453.933 728.972 455.028Q728.946 456.123 728.864 457.215Q728.783 458.307 728.646 459.394Q728.509 460.48 728.318 461.558Q728.126 462.637 727.88 463.704Q727.635 464.771 727.336 465.824Q727.036 466.878 726.684 467.915Q726.332 468.952 725.928 469.97Q725.524 470.987 725.069 471.984Q724.614 472.98 724.109 473.951Q723.604 474.923 723.051 475.868Q722.498 476.814 721.897 477.73Q721.297 478.645 720.651 479.53Q720.006 480.414 719.316 481.265C711.105 491.442 696.701 498.09 683.848 499.431C656.424 502.294 626.475 493.265 600.14 486.785C596.83 485.971 593.644 484.493 590.311 483.796C588.398 483.396 586.402 483.087 584.65 484.149C582.631 489.488 582.16 495.412 580.359 500.875C573.052 523.044 560.34 539.045 538.988 548.761C529.938 552.879 507.649 558.334 498.037 554.793C496.516 554.233 495.383 553.117 494.805 551.598C493.172 547.297 495.297 544.212 495.507 540.027C496.161 527.04 495.596 507.682 490.016 496.043C485.989 498.142 482.278 501.017 478.587 503.649C457.311 518.817 444.65 538.387 436.96 563.099C426.924 595.352 432.623 632.097 448.337 661.725C458.789 681.431 479.245 706.019 500.804 713.436C500.97 713.381 501.137 713.329 501.303 713.271C508.468 710.757 517.525 701.821 525.603 697.875C556.019 683.017 596.475 684.111 626.96 698.353C631.722 700.578 636.492 703.248 640.71 706.399C648.343 712.102 666.972 730.63 670.197 739.206C671.236 741.967 671.613 744.998 670.196 747.7C668.758 750.443 665.846 752.112 662.964 752.972C656.727 754.835 649.431 753.657 643.005 753.45Q641.694 753.417 640.383 753.451Q639.072 753.484 637.764 753.585Q636.456 753.685 635.155 753.851Q633.854 754.018 632.564 754.25Q631.273 754.483 629.995 754.781Q628.718 755.078 627.458 755.44Q626.197 755.803 624.957 756.229Q623.716 756.654 622.499 757.143Q621.282 757.631 620.091 758.181Q618.9 758.73 617.738 759.34Q616.577 759.949 615.448 760.617Q614.319 761.284 613.226 762.008Q612.132 762.732 611.077 763.511Q610.021 764.29 609.007 765.121Q607.993 765.952 607.022 766.834Q606.051 767.716 605.126 768.646C600.143 773.658 595.939 779.375 591.216 784.615C579.363 784.499 567.32 784.856 555.514 783.787C552.039 791.529 548.527 799.487 543.65 806.476C540.523 810.957 536.657 814.965 533.201 819.196C523.142 831.51 517.413 844.251 515.572 860.103C514.274 871.284 515.168 882.867 514.928 894.119C512.983 894.623 511.049 895.142 509.073 895.511C490.37 890.739 469.629 870.348 459.968 854.167C450.979 839.111 445.846 821.118 446.316 803.551C446.484 797.288 447.444 791.077 447.621 784.833C423.608 776.002 394.122 763.339 372.805 749.204C366.046 744.722 359.951 739.583 353.57 734.611C347.613 729.969 341.743 725.748 336.252 720.496C330.575 715.067 325.5 709.045 320.292 703.173C312.036 693.863 302.533 682.818 296.295 672.03C293.962 666.613 286.759 655.851 283.343 650.436C281.184 645.301 277.729 640.712 275.242 635.723C270.434 626.081 266.34 615.46 262.636 605.328C261.845 603.165 259.127 593.424 257.717 592.593C251.931 585.278 251.836 574.209 248.306 565.741L249.558 557.997C249.571 557.961 249.59 557.927 249.596 557.89C249.837 556.495 249.897 556.358 249.208 555.164C247.683 553.139 246.46 550.796 245.159 548.619C245.738 545.847 246.324 543.15 247.21 540.456C248.13 539.351 247.848 538.134 247.696 536.739Q247.275 532.708 246.97 528.667Q246.664 524.626 246.474 520.578Q246.284 516.529 246.21 512.477Q246.135 508.425 246.177 504.373Q246.218 500.32 246.375 496.271Q246.532 492.221 246.804 488.178Q247.076 484.134 247.464 480.1Q247.851 476.066 248.354 472.044Q248.856 468.023 249.473 464.017Q250.09 460.012 250.821 456.026Q251.553 452.04 252.397 448.076Q253.242 444.112 254.199 440.174Q255.156 436.236 256.225 432.327Q257.295 428.418 258.475 424.541Q259.655 420.664 260.946 416.822Q262.236 412.98 263.636 409.177C268.33 396.492 277.323 383.275 278.066 369.623C278.831 355.568 272.052 341.209 260.962 332.623C247.947 322.548 231.642 320.898 215.755 320.951C210.294 320.969 204.501 321.296 199.069 320.728C197.143 318.499 194.505 316.132 194.641 312.966C195.06 303.193 212.793 285.898 220.116 279.943C236.208 266.857 258.204 257.686 278.719 255.041C286.925 253.983 295.302 254.109 303.567 253.994C311.762 253.881 320.03 253.636 328.193 254.489C343.52 256.09 360.124 260.398 374.009 267.088Z"/>
		<path fill="#7CCEF1" d="M376.194 296.735C379.747 291.841 385.776 287.889 390.691 284.342Q393.002 282.656 395.362 281.038Q397.721 279.421 400.127 277.873Q402.532 276.325 404.983 274.848Q407.433 273.372 409.925 271.967Q412.417 270.563 414.949 269.232Q417.482 267.901 420.052 266.645Q422.622 265.389 425.228 264.209Q427.834 263.029 430.473 261.925Q433.112 260.822 435.783 259.796Q438.453 258.77 441.153 257.823Q443.852 256.876 446.578 256.008Q449.304 255.141 452.054 254.353Q454.804 253.566 457.576 252.859Q460.348 252.152 463.14 251.527Q465.931 250.902 468.74 250.359Q471.549 249.816 474.372 249.355C486.272 247.448 498.82 245.948 510.883 245.989C517.071 246.011 523.216 246.703 529.366 247.325C562.568 250.682 595.264 260.619 622.52 280.373C649.029 299.587 670.504 327.085 675.699 360.099C678.632 378.743 677.161 393.313 672.167 411.339C684.59 421.866 698.766 431.267 703.971 447.531Q704.296 455.106 703.621 462.657C702.48 462.831 701.344 462.945 700.194 463.047C675.99 465.187 653.608 456.38 635.229 440.963C624.262 431.762 606.133 411.399 604.804 396.604C601.332 396.742 594.965 395.405 591.983 397.176C591.262 397.604 591.226 399.069 591.057 399.864C591.05 398.177 591.326 397.522 590.231 396.189C588.273 395.66 586.357 396.01 584.364 395.981C558.771 377.399 535.352 368.711 503.236 373.88C481.52 377.375 459.572 389.486 443.382 404.234C434.159 404.519 424.923 404.239 415.695 404.409C394.847 419.985 381.395 447.831 374.872 472.457C371.092 488.865 370.36 506.408 370.961 523.214C390.362 522.653 409.856 523.216 429.271 523.069C420.114 537.052 413.832 551.637 410.349 568C408.78 577.899 407.273 588.027 407.161 598.07C406.792 630.902 419.312 664.088 438.456 690.483C456.853 715.849 478.34 731.044 507.62 741.965C523.19 723.47 543.366 713.615 567.356 711.539C587.487 709.796 612.897 714.709 628.703 728.083C629.715 728.94 630.666 729.876 631.605 730.811C624.348 731.752 616.588 733.146 609.878 736.19C594.526 743.63 590.223 749.58 578.328 760.878C565.898 760.87 553.159 759.831 541.057 763.319C537.337 764.391 533.853 767.217 530.502 764.327C530.626 768.181 529.851 771.958 529.989 775.809C530.031 779.705 529.788 783.564 529.537 787.45C524.98 792.698 519.967 797.554 515.396 802.791C501.525 818.686 494.206 835.923 491.789 856.803C487.656 852.23 484.051 846.986 480.996 841.641C466.994 817.142 469.731 792.985 476.857 767.047Q474.21 766.528 471.593 765.877C466.112 764.508 460.71 762.617 455.321 760.923C392.812 741.266 343.602 703.581 309.758 647.273Q307.391 643.354 305.159 639.356Q302.927 635.359 300.832 631.288Q298.737 627.217 296.782 623.077Q294.827 618.937 293.014 614.733Q291.2 610.529 289.531 606.266Q287.862 602.003 286.338 597.685Q284.815 593.367 283.439 589.001Q282.063 584.634 280.837 580.223Q279.61 575.812 278.535 571.361Q277.459 566.911 276.535 562.427Q275.611 557.943 274.841 553.43Q274.07 548.917 273.453 544.38Q272.836 539.843 272.374 535.288Q271.911 530.733 271.604 526.165Q271.297 521.597 271.146 517.021Q270.994 512.445 270.998 507.867C270.857 488.325 272.463 469.176 277.192 450.154C280.743 434.646 285.6 418.601 291.934 404C295.46 395.872 300.973 387.024 303.334 378.633C302.763 375.102 303.047 371.098 302.925 367.502C302.581 357.375 300.524 347.833 296.253 338.608C286.941 318.497 271.221 307.388 250.872 299.987L243.191 298.432C243.245 296.809 243.495 295.194 243.695 293.583C248.937 290.556 254.273 287.799 259.94 285.654C296.438 273.759 333.668 274.68 368.177 292.333Q372.245 294.425 376.194 296.735Z"/>
		<path fill="#286ABC" d="M325.549 418.06C338.195 417.596 352.066 416.594 364.613 418.009C356.558 427.207 349.131 437.249 343.127 447.915C328.876 473.228 320.001 505.155 317.826 534.045C316.925 546.019 317.239 559.05 318.048 571.035C321.564 623.125 349.952 670.754 388.864 704.575C405.161 718.741 421.786 729.408 441.396 738.333C446.461 740.639 451.738 743.32 457.161 744.638Q477.262 752.809 497.967 759.297C502.217 760.11 506.448 761.537 510.698 762.491C518.963 758.696 525.584 753.67 532.642 748.022C549.586 734.464 562.735 729.76 584.486 730.866C593.242 731.085 601.935 732.235 609.878 736.19C594.526 743.63 590.223 749.58 578.328 760.878C565.898 760.87 553.159 759.831 541.057 763.319C537.337 764.391 533.853 767.217 530.502 764.327C530.626 768.181 529.851 771.958 529.989 775.809C530.031 779.705 529.788 783.564 529.537 787.45C524.98 792.698 519.967 797.554 515.396 802.791C501.525 818.686 494.206 835.923 491.789 856.803C487.656 852.23 484.051 846.986 480.996 841.641C466.994 817.142 469.731 792.985 476.857 767.047Q474.21 766.528 471.593 765.877C466.112 764.508 460.71 762.617 455.321 760.923C392.812 741.266 343.602 703.581 309.758 647.273Q307.391 643.354 305.159 639.356Q302.927 635.359 300.832 631.288Q298.737 627.217 296.782 623.077Q294.827 618.937 293.014 614.733Q291.2 610.529 289.531 606.266Q287.862 602.003 286.338 597.685Q284.815 593.367 283.439 589.001Q282.063 584.634 280.837 580.223Q279.61 575.812 278.535 571.361Q277.459 566.911 276.535 562.427Q275.611 557.943 274.841 553.43Q274.07 548.917 273.453 544.38Q272.836 539.843 272.374 535.288Q271.911 530.733 271.604 526.165Q271.297 521.597 271.146 517.021Q270.994 512.445 270.998 507.867C270.857 488.325 272.463 469.176 277.192 450.154L277.686 450.911C280.779 451.346 287.128 448.655 290.681 448.177C297.622 447.244 305.043 448.16 312.07 447.688C312.267 442.685 312.124 437.648 312.098 432.64C312.406 428.523 313.802 427.321 316.796 424.707C319.486 422.359 322.551 419.984 325.549 418.06Z"/>
		<path fill="#7CCEF1" d="M510.698 762.491C518.963 758.696 525.584 753.67 532.642 748.022C549.586 734.464 562.735 729.76 584.486 730.866C593.242 731.085 601.935 732.235 609.878 736.19C594.526 743.63 590.223 749.58 578.328 760.878C565.898 760.87 553.159 759.831 541.057 763.319C537.337 764.391 533.853 767.217 530.502 764.327C530.626 768.181 529.851 771.958 529.989 775.809C514.963 779.171 500.228 795.409 494.506 809.237C492.687 813.635 491.948 820.171 489.076 823.873L488.418 823.606C487.089 821.356 486.878 818.118 486.534 815.544C484.345 799.165 487.656 772.688 497.967 759.297C502.217 760.11 506.448 761.537 510.698 762.491Z"/>
		<path fill="#286ABC" d="M584.486 730.866C593.242 731.085 601.935 732.235 609.878 736.19C594.526 743.63 590.223 749.58 578.328 760.878C565.898 760.87 553.159 759.831 541.057 763.319C537.337 764.391 533.853 767.217 530.502 764.327C531.87 762.651 534.011 761.317 535.716 759.976C547.451 750.748 556.95 749.652 569.997 744.374C576.849 741.602 581.54 737.737 584.486 730.866Z"/>
		<path fill="#E2ECF9" d="M293.829 460.562Q302.942 460.539 312.05 460.815Q312.312 470.402 312.065 479.99L293.954 480.008L293.829 460.562Z"/>
		<path fill="#E2ECF9" d="M457.161 744.638C455.414 742.604 440.428 733.099 436.77 730.383C419.243 717.366 402.717 701.776 389.666 684.217C359.254 643.301 345.012 589.079 352.622 538.584C355.572 519.009 360.984 500.359 368.364 482.005C369.508 479.16 371.074 473.892 373.502 472.1L374.872 472.457C371.092 488.865 370.36 506.408 370.961 523.214C390.362 522.653 409.856 523.216 429.271 523.069C420.114 537.052 413.832 551.637 410.349 568C408.78 577.899 407.273 588.027 407.161 598.07C406.792 630.902 419.312 664.088 438.456 690.483C456.853 715.849 478.34 731.044 507.62 741.965C523.19 723.47 543.366 713.615 567.356 711.539C587.487 709.796 612.897 714.709 628.703 728.083C629.715 728.94 630.666 729.876 631.605 730.811C624.348 731.752 616.588 733.146 609.878 736.19C601.935 732.235 593.242 731.085 584.486 730.866C562.735 729.76 549.586 734.464 532.642 748.022C525.584 753.67 518.963 758.696 510.698 762.491C506.448 761.537 502.217 760.11 497.967 759.297Q477.262 752.809 457.161 744.638Z"/>
		<path fill="#7CCEF1" d="M370.961 523.214C390.362 522.653 409.856 523.216 429.271 523.069C420.114 537.052 413.832 551.637 410.349 568C409.589 567.13 409.332 566.776 408.237 566.324C397.223 574.019 386.44 582.784 374.893 589.612C373.147 574.455 374.742 557.323 378.245 542.537C379.762 536.133 381.942 529.92 383.48 523.521C379.366 523.561 375.026 523.885 370.961 523.214Z"/>
		<path fill="#E2ECF9" d="M376.194 296.735C379.747 291.841 385.776 287.889 390.691 284.342Q393.002 282.656 395.362 281.038Q397.721 279.421 400.127 277.873Q402.532 276.325 404.983 274.848Q407.433 273.372 409.925 271.967Q412.417 270.563 414.949 269.232Q417.482 267.901 420.052 266.645Q422.622 265.389 425.228 264.209Q427.834 263.029 430.473 261.925Q433.112 260.822 435.783 259.796Q438.453 258.77 441.153 257.823Q443.852 256.876 446.578 256.008Q449.304 255.141 452.054 254.353Q454.804 253.566 457.576 252.859Q460.348 252.152 463.14 251.527Q465.931 250.902 468.74 250.359Q471.549 249.816 474.372 249.355C486.272 247.448 498.82 245.948 510.883 245.989C517.071 246.011 523.216 246.703 529.366 247.325C562.568 250.682 595.264 260.619 622.52 280.373C649.029 299.587 670.504 327.085 675.699 360.099C678.632 378.743 677.161 393.313 672.167 411.339C684.59 421.866 698.766 431.267 703.971 447.531C702.242 448.407 698.669 448.19 696.756 447.944C680.357 445.832 661.142 419.473 651.165 406.842C653.025 401.538 654.307 395.789 655.107 390.229C658.757 364.857 651.015 342.657 635.805 322.546C612.767 292.087 572.288 274.89 535.161 269.905C483.138 262.92 427.234 280.493 387.621 314.732Q377.431 323.454 368.051 333.041C362.538 338.742 357.083 345.683 350.741 350.431C350.576 350.555 350.406 350.674 350.239 350.795Q346.709 351.247 343.17 351.623C342.51 351.218 341.888 350.785 341.277 350.309C338.78 348.363 334.645 344.902 334.548 341.407C334.364 334.72 355.273 315.528 360.478 310.553C346.79 303.217 328.589 297.204 313.166 295.259C303.508 294.041 293.836 294.049 284.122 294.217C278.413 294.316 272.532 294.231 266.852 294.844C263.319 295.225 259.989 296.5 256.478 297.019C256.067 294.87 265.244 293.107 266.895 290.259C265.77 288.29 261.837 288.943 259.94 285.654C296.438 273.759 333.668 274.68 368.177 292.333Q372.245 294.425 376.194 296.735Z"/>
		<path fill="#286ABC" d="M250.872 299.987C255.17 299.687 259.25 300.455 263.457 301.262C277.721 303.997 289.579 309.42 300.626 319.005C310.333 327.428 318.35 337.569 322.665 349.784C315.138 358.009 308.684 368.869 303.334 378.633C302.763 375.102 303.047 371.098 302.925 367.502C302.581 357.375 300.524 347.833 296.253 338.608C286.941 318.497 271.221 307.388 250.872 299.987Z"/>
		<path fill="#E2ECF9" d="M293.887 428.344C299.494 428.021 305.853 427.449 311.419 428.275C312.254 429.476 312.051 431.224 312.098 432.64C312.124 437.648 312.267 442.685 312.07 447.688C306.39 446.782 299.775 447.506 294.017 447.636L293.887 428.344Z"/>
		<path fill="#190A50" d="M577.621 342.082C581.881 341.84 585.715 341.64 589.73 343.441C594.256 345.472 597.625 349.362 599.381 353.963C601.251 358.864 601.492 364.934 599.288 369.769C596.769 375.295 591.995 378.479 586.484 380.508C582.43 381.047 578.435 381.284 574.561 379.697C570.051 377.848 566.373 373.759 564.556 369.284C562.535 364.306 562.706 358.343 564.823 353.426C567.381 347.483 571.798 344.325 577.621 342.082Z"/>
		<path fill="#E2ECF9" d="M581.679 349.954C582.694 350.072 583.771 350.242 584.74 350.566C586.605 351.188 588.387 352.697 589.257 354.462C590.105 356.183 590.138 358.151 589.479 359.939C588.519 362.547 586.355 363.925 583.956 365.056C583.038 365.078 582.086 365.056 581.184 364.87C579.275 364.475 577.451 363.003 576.5 361.323C575.409 359.397 575.338 357.108 576.065 355.04C577.081 352.151 579.018 351.14 581.679 349.954Z"/>
		<path fill="#9EE4FA" d="M449.648 289.171C454.555 288.996 459.485 288.999 464.396 288.919C464.529 292.557 466.286 304.858 464.49 307.566C464.103 308.15 462.797 308.041 462.125 308.108C456.919 308.263 451.692 308.117 446.485 308.068C446.188 304.028 444.413 293.009 446.879 289.901C447.376 289.275 448.872 289.292 449.648 289.171Z"/>
		<path fill="#E2ECF9" d="M403.997 306.524C410.062 306.698 416.145 306.545 422.212 306.491Q422.948 315.722 422.278 324.958L404.513 324.889C404.048 318.753 403.991 312.673 403.997 306.524Z"/>
		<path fill="#E2ECF9" d="M443.382 404.234C459.572 389.486 481.52 377.375 503.236 373.88C535.352 368.711 558.771 377.399 584.364 395.981C586.357 396.01 588.273 395.66 590.231 396.189C591.326 397.522 591.05 398.177 591.057 399.864C591.13 420.705 603.275 437.359 617.63 451.58L622.982 456.832C630.66 462.862 639.04 467.919 647.437 472.869C636.14 469.498 623.989 467.54 612.465 464.882C598.185 461.589 584.004 458.142 569.637 455.211C563.147 453.887 556.596 452.368 550.005 451.657C541.276 450.716 531.813 451.043 523.006 451.01C526.181 442.432 528.116 433.584 529.776 424.603C530.23 418.736 530.564 411.882 529.766 406.064L507.615 406.009C507.364 411.245 507.081 416.407 505.617 421.468C504.321 442.787 491.224 462.672 475.579 476.454C470.155 481.231 464.197 485.207 457.905 488.746C437.296 500.336 419.749 500.841 396.782 500.72L396.932 493.935C399.535 471.07 406.254 451.471 418.944 432.338C425.663 422.046 434.867 413.024 443.382 404.234Z"/>
		<path fill="#7CCEF1" d="M418.944 432.338C425.024 432.901 432.709 430.797 438.657 429.45C449.589 426.975 460.091 423.972 469.845 418.276C495.324 403.398 496.097 392.287 529.542 393.085C529.488 397.4 529.285 401.77 529.766 406.064L507.615 406.009C507.364 411.245 507.081 416.407 505.617 421.468C504.321 442.787 491.224 462.672 475.579 476.454C470.155 481.231 464.197 485.207 457.905 488.746C437.296 500.336 419.749 500.841 396.782 500.72L396.932 493.935C399.535 471.07 406.254 451.471 418.944 432.338Z"/>
		<path fill="#286ABC" d="M505.617 421.468C504.321 442.787 491.224 462.672 475.579 476.454C470.155 481.231 464.197 485.207 457.905 488.746C437.296 500.336 419.749 500.841 396.782 500.72L396.932 493.935C413.844 492.06 438.957 485.008 453.333 475.904C456.344 473.997 458.836 471.431 461.348 468.93L463.009 469.233C478.438 460.722 498.19 437.062 505.617 421.468Z"/>
		<path fill="#7CCEF1" d="M523.006 451.01C526.181 442.432 528.116 433.584 529.776 424.603C529.988 424.664 530.198 424.728 530.41 424.784C534.929 425.97 547.671 424.735 553.272 424.912C573.275 425.542 595.338 439.284 611.428 450.483C614.232 452.435 619.715 457.576 622.982 456.832C630.66 462.862 639.04 467.919 647.437 472.869C636.14 469.498 623.989 467.54 612.465 464.882C598.185 461.589 584.004 458.142 569.637 455.211C563.147 453.887 556.596 452.368 550.005 451.657C541.276 450.716 531.813 451.043 523.006 451.01Z"/>
		<path fill="#0B2885" d="M517.54 473.226C531.621 472.508 546.389 474.285 560.098 477.407C558.178 493.429 553.442 506.829 541.608 518.172C536.033 523.617 527.802 527.654 520.383 529.759C519.935 521.828 520.402 513.887 518.965 506.038C516.933 494.937 512.528 484.559 510.29 473.545L517.54 473.226Z"/>
	</g>
	<g/>
</svg>
